<svg width="56" height="56" viewBox="0 0 56 56" fill="none" xmlns="http://www.w3.org/2000/svg">
<path d="M32.375 46.5938H23.625C23.0209 46.5938 22.5312 47.0835 22.5312 47.6875C22.5312 48.2915 23.0209 48.7812 23.625 48.7812H32.375C32.979 48.7812 33.4688 48.2915 33.4688 47.6875C33.4688 47.0835 32.979 46.5938 32.375 46.5938Z" fill="#F8CA21"/>
<path d="M12.9355 14.5185H8.74171V21.0192C8.44635 21.0202 7.25879 21.0247 7.25879 21.0247L7.26627 23.0106C7.26627 23.0106 8.45085 23.0061 8.74171 23.0051V24.2234C8.44635 24.2245 7.25879 24.229 7.25879 24.229L7.26627 26.2148C7.26627 26.2148 8.45085 26.2103 8.74171 26.2093V28H10.7276V26.2024C11.6467 26.1994 13.9284 26.1968 13.9284 26.1968V24.2109C13.9284 24.2109 11.6465 24.2135 10.7276 24.2165V22.9982C11.6467 22.9953 12.5583 22.9926 12.9355 22.9926C14.0661 22.9926 15.138 22.5552 15.9538 21.761C16.7807 20.9559 17.236 19.8886 17.236 18.7557C17.236 17.6227 16.7807 16.5554 15.9538 15.7504C15.1381 14.9559 14.0661 14.5185 12.9355 14.5185ZM12.9355 21.0067C12.5573 21.0067 11.6465 21.0093 10.7276 21.0123V16.5044H12.9355C14.1902 16.5044 15.2502 17.5353 15.2502 18.7555C15.2502 19.9758 14.1902 21.0067 12.9355 21.0067Z" fill="#F8CA21"/>
<path d="M43.9688 28C40.3502 28 37.4062 30.9439 37.4062 34.5625C37.4062 38.1811 40.3502 41.125 43.9688 41.125C47.5873 41.125 50.5312 38.1811 50.5312 34.5625C50.5312 30.9439 47.5873 28 43.9688 28ZM43.9688 38.9375C41.5564 38.9375 39.5938 36.9749 39.5938 34.5625C39.5938 32.1501 41.5564 30.1875 43.9688 30.1875C46.3811 30.1875 48.3438 32.1501 48.3438 34.5625C48.3438 36.9749 46.3811 38.9375 43.9688 38.9375Z" fill="#F8CA21"/>
<path d="M43.9688 22.5312C43.3744 22.5312 42.7902 22.5753 42.2188 22.6589V6.125C42.2188 4.31572 40.7468 2.84375 38.9375 2.84375H17.0625C15.2532 2.84375 13.7812 4.31572 13.7812 6.125V9.534C13.2098 9.45033 12.6256 9.40625 12.0312 9.40625C5.39722 9.40625 0 14.8035 0 21.4375C0 28.0715 5.39722 33.4688 12.0312 33.4688C12.6256 33.4688 13.2098 33.4247 13.7812 33.341V49.875C13.7812 51.6843 15.2532 53.1562 17.0625 53.1562H38.9375C40.7468 53.1562 42.2188 51.6843 42.2188 49.875V46.466C42.7902 46.5497 43.3744 46.5938 43.9688 46.5938C50.6028 46.5938 56 41.1965 56 34.5625C56 27.9285 50.6028 22.5312 43.9688 22.5312ZM22.5312 5.03125H33.4688V7.21875H22.5312V5.03125ZM12.0312 31.2812C6.60341 31.2812 2.1875 26.8653 2.1875 21.4375C2.1875 16.0097 6.60341 11.5938 12.0312 11.5938C17.4591 11.5938 21.875 16.0097 21.875 21.4375C21.875 26.8653 17.4591 31.2812 12.0312 31.2812ZM40.0312 49.875C40.0312 50.4781 39.5406 50.9688 38.9375 50.9688H17.0625C16.4594 50.9688 15.9688 50.4781 15.9688 49.875V32.8063C20.6748 31.1718 24.0625 26.6931 24.0625 21.4375C24.0625 16.1819 20.6748 11.7032 15.9688 10.0686V6.125C15.9688 5.52191 16.4594 5.03125 17.0625 5.03125H20.3438V8.3125C20.3438 8.91647 20.8334 9.40625 21.4375 9.40625H34.5625C35.1665 9.40625 35.6562 8.91647 35.6562 8.3125V5.03125H38.9375C39.5406 5.03125 40.0312 5.52191 40.0312 6.125V23.1936C35.3252 24.8282 31.9375 29.3068 31.9375 34.5625C31.9375 39.8182 35.3252 44.2968 40.0312 45.9313V49.875ZM43.9688 44.4062C38.5409 44.4062 34.125 39.9903 34.125 34.5625C34.125 29.1347 38.5409 24.7188 43.9688 24.7188C49.3966 24.7188 53.8125 29.1347 53.8125 34.5625C53.8125 39.9903 49.3966 44.4062 43.9688 44.4062Z" fill="#F8CA21"/>
<path d="M26.9062 22.5313H36.75C37.1924 22.5313 37.5912 22.2648 37.7605 21.8561C37.9297 21.4474 37.8361 20.9769 37.5234 20.6641L34.2421 17.3829C33.8149 16.9559 33.1226 16.9559 32.6952 17.3829C32.2681 17.81 32.2681 18.5025 32.6952 18.9298L34.1094 20.3438H26.9062C26.3022 20.3438 25.8125 20.8334 25.8125 21.4375C25.8125 22.0416 26.3022 22.5313 26.9062 22.5313V22.5313Z" fill="#F8CA21"/>
<path d="M23.3046 38.6171C23.7317 38.19 23.7317 37.4975 23.3046 37.0703L21.8906 35.6562H29.0937C29.6977 35.6562 30.1875 35.1665 30.1875 34.5625C30.1875 33.9585 29.6977 33.4688 29.0937 33.4688H19.25C18.8076 33.4688 18.4088 33.7352 18.2395 34.1439C18.0703 34.5527 18.1639 35.0231 18.4766 35.3359L21.7578 38.6171C21.9715 38.8306 22.2512 38.9375 22.5312 38.9375C22.8112 38.9375 23.091 38.8306 23.3046 38.6171Z" fill="#F8CA21"/>
</svg>
