<svg width="56" height="56" viewBox="0 0 56 56" fill="none" xmlns="http://www.w3.org/2000/svg">
<g clip-path="url(#clip0)">
<path d="M53.0526 4.40759H43.4736V1.11256C43.4736 0.498094 42.9785 0 42.3684 0C41.7583 0 41.2631 0.498094 41.2631 1.11256V4.40847H14.728V1.11256C14.728 0.498094 14.2329 0 13.6228 0C13.0127 0 12.5175 0.498094 12.5175 1.11256V4.40847H2.94744C1.32562 4.40847 0 5.74437 0 7.3757V52.3082C0 53.9403 1.32562 55.2755 2.94744 55.2755H53.0527C54.673 55.2755 56 53.9396 56 52.3082V7.3757C56 5.74361 54.673 4.40759 53.0526 4.40759ZM53.7894 52.3082C53.7894 52.7099 53.4511 53.0502 53.0526 53.0502H2.94744C2.54734 53.0502 2.21058 52.7099 2.21058 52.3082V17.7011H53.7894V52.3082ZM53.7895 15.4757H2.21058V7.3757C2.21058 6.97331 2.54723 6.6337 2.94744 6.6337H12.5175V10.7586C12.5175 11.373 13.0127 11.8711 13.6228 11.8711C14.2329 11.8711 14.728 11.373 14.728 10.7586V6.6337H41.2631V10.7586C41.2631 11.373 41.7583 11.8711 42.3684 11.8711C42.9785 11.8711 43.4736 11.373 43.4736 10.7586V6.6337H53.0526C53.4512 6.6337 53.7894 6.97342 53.7894 7.3757V15.4757H53.7895Z" fill="#F8CA21"/>
<path d="M25.4359 25.0495H20.2796C19.6695 25.0495 19.1743 25.5484 19.1743 26.1629C19.1743 26.7773 19.6695 27.2762 20.2796 27.2762H25.4359C26.046 27.2762 26.5412 26.7773 26.5412 26.1629C26.5412 25.5484 26.046 25.0495 25.4359 25.0495Z" fill="#F8CA21"/>
<path d="M35.7514 25.0495H30.5935C29.9834 25.0495 29.4883 25.5484 29.4883 26.1629C29.4883 26.7773 29.9834 27.2762 30.5935 27.2762H35.7514C36.3615 27.2762 36.8567 26.7773 36.8567 26.1629C36.8567 25.5484 36.3615 25.0495 35.7514 25.0495Z" fill="#F8CA21"/>
<path d="M46.0673 25.0495H40.9094C40.2993 25.0495 39.8042 25.5484 39.8042 26.1629C39.8042 26.7773 40.2993 27.2762 40.9094 27.2762H46.0673C46.6774 27.2762 47.1726 26.7773 47.1726 26.1629C47.1726 25.5484 46.6775 25.0495 46.0673 25.0495Z" fill="#F8CA21"/>
<path d="M25.4359 31.6811H20.2796C19.6695 31.6811 19.1743 32.18 19.1743 32.7944C19.1743 33.4089 19.6695 33.9077 20.2796 33.9077H25.4359C26.046 33.9077 26.5412 33.4089 26.5412 32.7944C26.5412 32.18 26.046 31.6811 25.4359 31.6811Z" fill="#F8CA21"/>
<path d="M35.7514 31.6811H30.5935C29.9834 31.6811 29.4883 32.18 29.4883 32.7944C29.4883 33.4089 29.9834 33.9077 30.5935 33.9077H35.7514C36.3615 33.9077 36.8567 33.4089 36.8567 32.7944C36.8567 32.18 36.3615 31.6811 35.7514 31.6811Z" fill="#F8CA21"/>
<path d="M46.0673 31.6811H40.9094C40.2993 31.6811 39.8042 32.18 39.8042 32.7944C39.8042 33.4089 40.2993 33.9077 40.9094 33.9077H46.0673C46.6774 33.9077 47.1726 33.4089 47.1726 32.7944C47.1726 32.18 46.6775 31.6811 46.0673 31.6811Z" fill="#F8CA21"/>
<path d="M14.3837 31.6811H9.22584C8.61574 31.6811 8.12061 32.18 8.12061 32.7944C8.12061 33.4089 8.61574 33.9077 9.22584 33.9077H14.3837C14.9924 33.9077 15.489 33.4089 15.489 32.7944C15.4889 32.18 14.9931 31.6811 14.3837 31.6811Z" fill="#F8CA21"/>
<path d="M25.4359 38.3134H20.2796C19.6695 38.3134 19.1743 38.8115 19.1743 39.426C19.1743 40.0405 19.6695 40.5393 20.2796 40.5393H25.4359C26.046 40.5393 26.5412 40.0405 26.5412 39.426C26.5413 38.8115 26.046 38.3134 25.4359 38.3134Z" fill="#F8CA21"/>
<path d="M35.7514 38.3134H30.5935C29.9834 38.3134 29.4883 38.8115 29.4883 39.426C29.4883 40.0405 29.9834 40.5393 30.5935 40.5393H35.7514C36.3615 40.5393 36.8567 40.0405 36.8567 39.426C36.8567 38.8115 36.3615 38.3134 35.7514 38.3134Z" fill="#F8CA21"/>
<path d="M46.0673 38.3134H40.9094C40.2993 38.3134 39.8042 38.8115 39.8042 39.426C39.8042 40.0405 40.2993 40.5393 40.9094 40.5393H46.0673C46.6774 40.5393 47.1726 40.0405 47.1726 39.426C47.1727 38.8115 46.6775 38.3134 46.0673 38.3134Z" fill="#F8CA21"/>
<path d="M14.3837 38.3134H9.22584C8.61574 38.3134 8.12061 38.8115 8.12061 39.426C8.12061 40.0405 8.61574 40.5393 9.22584 40.5393H14.3837C14.9924 40.5393 15.489 40.0405 15.489 39.426C15.4891 38.8115 14.9931 38.3134 14.3837 38.3134Z" fill="#F8CA21"/>
<path d="M14.3837 44.945H9.22584C8.61574 44.945 8.12061 45.4431 8.12061 46.0576C8.12061 46.6721 8.61574 47.1709 9.22584 47.1709H14.3837C14.9924 47.1709 15.489 46.6721 15.489 46.0576C15.4889 45.4431 14.9931 44.945 14.3837 44.945Z" fill="#F8CA21"/>
<path d="M24.6991 44.945H19.5427C18.9326 44.945 18.4375 45.4431 18.4375 46.0576C18.4375 46.6721 18.9326 47.1709 19.5427 47.1709H24.6991C25.3092 47.1709 25.8043 46.6721 25.8043 46.0576C25.8043 45.4431 25.3092 44.945 24.6991 44.945Z" fill="#F8CA21"/>
<path d="M35.0141 44.945H29.8562C29.2461 44.945 28.751 45.4431 28.751 46.0576C28.751 46.6721 29.2461 47.1709 29.8562 47.1709H35.0141C35.6242 47.1709 36.1194 46.6721 36.1194 46.0576C36.1195 45.4431 35.6242 44.945 35.0141 44.945Z" fill="#F8CA21"/>
<path fill-rule="evenodd" clip-rule="evenodd" d="M55.6161 58.902L-2.07446 8.2963L4.76416 0.500275L62.4547 51.106L55.6161 58.902Z" fill="white"/>
<path fill-rule="evenodd" clip-rule="evenodd" d="M0.683814 3.36853C1.0615 2.93797 1.71672 2.8951 2.14728 3.27279L55.1602 49.7754C55.5908 50.153 55.6336 50.8083 55.256 51.2388C54.8783 51.6694 54.2231 51.7122 53.7925 51.3346L0.779555 4.83199C0.348992 4.45431 0.306128 3.79909 0.683814 3.36853Z" fill="#F8CA21"/>
</g>
<defs>
<clipPath id="clip0">
<rect width="56" height="56" fill="white"/>
</clipPath>
</defs>
</svg>
