<svg width="56" height="56" viewBox="0 0 56 56" fill="none" xmlns="http://www.w3.org/2000/svg">
<path d="M49.875 42H48.125V39.8825C48.9039 39.5409 49.5667 38.9802 50.0328 38.2687C50.4988 37.5572 50.748 36.7255 50.75 35.875V32.375C50.75 31.2147 50.2891 30.1019 49.4686 29.2814C48.6481 28.4609 47.5353 28 46.375 28H44.625C43.4647 28 42.3519 28.4609 41.5314 29.2814C40.7109 30.1019 40.25 31.2147 40.25 32.375V35.875C40.252 36.7255 40.5012 37.5572 40.9672 38.2687C41.4333 38.9802 42.0961 39.5409 42.875 39.8825V42H41.125C39.9647 42 38.8519 42.4609 38.0314 43.2814C37.2109 44.1019 36.75 45.2147 36.75 46.375V53.375C36.75 53.6071 36.8422 53.8296 37.0063 53.9937C37.1704 54.1578 37.3929 54.25 37.625 54.25H53.375C53.6071 54.25 53.8296 54.1578 53.9937 53.9937C54.1578 53.8296 54.25 53.6071 54.25 53.375V46.375C54.25 45.2147 53.7891 44.1019 52.9686 43.2814C52.1481 42.4609 51.0353 42 49.875 42V42ZM44.625 29.75H46.375C47.0706 29.7521 47.737 30.0293 48.2289 30.5211C48.7207 31.013 48.9979 31.6794 49 32.375H47.6087L46.9962 31.7538C46.8803 31.6386 46.7346 31.558 46.5754 31.5209C46.4163 31.4838 46.2499 31.4917 46.095 31.5437L43.61 32.375H42C42.0021 31.6794 42.2793 31.013 42.7711 30.5211C43.263 30.0293 43.9294 29.7521 44.625 29.75V29.75ZM42 35.875V34.125H43.75C43.8449 34.1233 43.9391 34.1086 44.03 34.0813L46.1387 33.3725L46.6288 33.8712C46.7956 34.0324 47.018 34.1233 47.25 34.125H49V35.875C48.9979 36.5706 48.7207 37.237 48.2289 37.7289C47.737 38.2207 47.0706 38.4979 46.375 38.5H44.625C43.9294 38.4979 43.263 38.2207 42.7711 37.7289C42.2793 37.237 42.0021 36.5706 42 35.875V35.875ZM46.375 40.25V42H44.625V40.25H46.375ZM48.6588 43.75L47.495 47.25H43.505L42.3412 43.75H48.6588ZM52.5 52.5H38.5V46.375C38.5006 45.7849 38.7006 45.2123 39.0675 44.7501C39.4344 44.2879 39.9467 43.9633 40.5213 43.8288L42.0437 48.405C42.104 48.5778 42.2163 48.7277 42.3651 48.8342C42.5139 48.9408 42.692 48.9987 42.875 49H48.125C48.308 48.9987 48.4861 48.9408 48.6349 48.8342C48.7837 48.7277 48.896 48.5778 48.9563 48.405L50.4787 43.8288C51.0533 43.9633 51.5656 44.2879 51.9325 44.7501C52.2994 45.2123 52.4994 45.7849 52.5 46.375V52.5Z" fill="#F8CA21"/>
<path d="M14.875 15.75H13.125V13.6325C13.9039 13.2909 14.5667 12.7302 15.0328 12.0187C15.4988 11.3072 15.748 10.4755 15.75 9.625V6.125C15.75 4.96468 15.2891 3.85188 14.4686 3.03141C13.6481 2.21094 12.5353 1.75 11.375 1.75H9.625C8.46468 1.75 7.35188 2.21094 6.53141 3.03141C5.71094 3.85188 5.25 4.96468 5.25 6.125V9.625C5.25199 10.4755 5.50117 11.3072 5.96722 12.0187C6.43327 12.7302 7.09608 13.2909 7.875 13.6325V15.75H6.125C4.96468 15.75 3.85188 16.2109 3.03141 17.0314C2.21094 17.8519 1.75 18.9647 1.75 20.125V27.125C1.75 27.3571 1.84219 27.5796 2.00628 27.7437C2.17038 27.9078 2.39294 28 2.625 28H18.375C18.6071 28 18.8296 27.9078 18.9937 27.7437C19.1578 27.5796 19.25 27.3571 19.25 27.125V20.125C19.25 18.9647 18.7891 17.8519 17.9686 17.0314C17.1481 16.2109 16.0353 15.75 14.875 15.75V15.75ZM9.625 3.5H11.375C12.0706 3.50208 12.737 3.77931 13.2289 4.27114C13.7207 4.76297 13.9979 5.42945 14 6.125H12.6087L11.9963 5.50375C11.8803 5.38861 11.7346 5.308 11.5754 5.27091C11.4163 5.23383 11.2499 5.24173 11.095 5.29375L8.61 6.125H7C7.00208 5.42945 7.27931 4.76297 7.77114 4.27114C8.26297 3.77931 8.92945 3.50208 9.625 3.5V3.5ZM7 9.625V7.875H8.75C8.8449 7.8733 8.93911 7.85858 9.03 7.83125L11.1387 7.1225L11.6287 7.62125C11.7956 7.78242 12.018 7.87327 12.25 7.875H14V9.625C13.9979 10.3206 13.7207 10.987 13.2289 11.4789C12.737 11.9707 12.0706 12.2479 11.375 12.25H9.625C8.92945 12.2479 8.26297 11.9707 7.77114 11.4789C7.27931 10.987 7.00208 10.3206 7 9.625V9.625ZM11.375 14V15.75H9.625V14H11.375ZM13.6587 17.5L12.495 21H8.505L7.34125 17.5H13.6587ZM17.5 26.25H3.5V20.125C3.50064 19.5349 3.70062 18.9623 4.06751 18.5001C4.4344 18.0379 4.94668 17.7133 5.52125 17.5788L7.04375 22.155C7.10403 22.3278 7.21626 22.4777 7.36507 22.5842C7.51389 22.6908 7.692 22.7487 7.875 22.75H13.125C13.308 22.7487 13.4861 22.6908 13.6349 22.5842C13.7837 22.4777 13.896 22.3278 13.9562 22.155L15.4788 17.5788C16.0533 17.7133 16.5656 18.0379 16.9325 18.5001C17.2994 18.9623 17.4994 19.5349 17.5 20.125V26.25Z" fill="#F8CA21"/>
<path d="M22.7501 49.1575V41.125C22.7481 40.4294 22.4708 39.763 21.979 39.2711C21.4872 38.7793 20.8207 38.5021 20.1251 38.5H6.12515C5.42959 38.5021 4.76312 38.7793 4.27129 39.2711C3.77945 39.763 3.50223 40.4294 3.50015 41.125V49.1575C2.92145 49.3675 2.43496 49.7742 2.12572 50.3065C1.81649 50.8388 1.70418 51.4629 1.80842 52.0696C1.91267 52.6763 2.22685 53.2271 2.69603 53.6257C3.16521 54.0242 3.75955 54.2452 4.37515 54.25H21.8751C22.4907 54.2452 23.0851 54.0242 23.5543 53.6257C24.0234 53.2271 24.3376 52.6763 24.4419 52.0696C24.5461 51.4629 24.4338 50.8388 24.1246 50.3065C23.8153 49.7742 23.3288 49.3675 22.7501 49.1575V49.1575ZM5.25015 41.125C5.25015 40.8929 5.34234 40.6704 5.50643 40.5063C5.67052 40.3422 5.89308 40.25 6.12515 40.25H20.1251C20.3572 40.25 20.5798 40.3422 20.7439 40.5063C20.908 40.6704 21.0001 40.8929 21.0001 41.125V49H14.8751C14.6431 49 14.4205 49.0922 14.2564 49.2563C14.0923 49.4204 14.0001 49.6429 14.0001 49.875H12.2501C12.2501 49.6429 12.158 49.4204 11.9939 49.2563C11.8298 49.0922 11.6072 49 11.3751 49H5.25015V41.125ZM21.8751 52.5H4.37515C4.14308 52.5 3.92052 52.4078 3.75643 52.2437C3.59234 52.0796 3.50015 51.8571 3.50015 51.625C3.50015 51.3929 3.59234 51.1704 3.75643 51.0063C3.92052 50.8422 4.14308 50.75 4.37515 50.75H10.5001C10.5001 50.9821 10.5923 51.2046 10.7564 51.3687C10.9205 51.5328 11.1431 51.625 11.3751 51.625H14.8751C15.1072 51.625 15.3298 51.5328 15.4939 51.3687C15.658 51.2046 15.7501 50.9821 15.7501 50.75H21.8751C22.1072 50.75 22.3298 50.8422 22.4939 51.0063C22.658 51.1704 22.7501 51.3929 22.7501 51.625C22.7501 51.8571 22.658 52.0796 22.4939 52.2437C22.3298 52.4078 22.1072 52.5 21.8751 52.5Z" fill="#F8CA21"/>
<path d="M12.25 43.75H14V45.5H12.25V43.75Z" fill="#F8CA21"/>
<path d="M15.75 43.75H17.5V45.5H15.75V43.75Z" fill="#F8CA21"/>
<path d="M8.75 43.75H10.5V45.5H8.75V43.75Z" fill="#F8CA21"/>
<path d="M52.5002 12.4075V4.375C52.4981 3.67945 52.2209 3.01297 51.729 2.52114C51.2372 2.02931 50.5707 1.75208 49.8752 1.75H35.8752C35.1796 1.75208 34.5131 2.02931 34.0213 2.52114C33.5295 3.01297 33.2522 3.67945 33.2501 4.375V12.4075C32.6714 12.6175 32.185 13.0242 31.8757 13.5565C31.5665 14.0888 31.4542 14.7129 31.5584 15.3196C31.6627 15.9263 31.9768 16.4771 32.446 16.8757C32.9152 17.2742 33.5096 17.4952 34.1251 17.5H51.6252C52.2408 17.4952 52.8351 17.2742 53.3043 16.8757C53.7735 16.4771 54.0876 15.9263 54.1919 15.3196C54.2961 14.7129 54.1838 14.0888 53.8746 13.5565C53.5653 13.0242 53.0789 12.6175 52.5002 12.4075V12.4075ZM35.0002 4.375C35.0002 4.14294 35.0923 3.92038 35.2564 3.75628C35.4205 3.59219 35.6431 3.5 35.8752 3.5H49.8752C50.1072 3.5 50.3298 3.59219 50.4939 3.75628C50.658 3.92038 50.7502 4.14294 50.7502 4.375V12.25H44.6252C44.3931 12.25 44.1705 12.3422 44.0064 12.5063C43.8423 12.6704 43.7502 12.8929 43.7502 13.125H42.0002C42.0002 12.8929 41.908 12.6704 41.7439 12.5063C41.5798 12.3422 41.3572 12.25 41.1252 12.25H35.0002V4.375ZM51.6252 15.75H34.1251C33.8931 15.75 33.6705 15.6578 33.5064 15.4937C33.3423 15.3296 33.2501 15.1071 33.2501 14.875C33.2501 14.6429 33.3423 14.4204 33.5064 14.2563C33.6705 14.0922 33.8931 14 34.1251 14H40.2502C40.2502 14.2321 40.3423 14.4546 40.5064 14.6187C40.6705 14.7828 40.8931 14.875 41.1252 14.875H44.6252C44.8572 14.875 45.0798 14.7828 45.2439 14.6187C45.408 14.4546 45.5002 14.2321 45.5002 14H51.6252C51.8572 14 52.0798 14.0922 52.2439 14.2563C52.408 14.4204 52.5002 14.6429 52.5002 14.875C52.5002 15.1071 52.408 15.3296 52.2439 15.4937C52.0798 15.6578 51.8572 15.75 51.6252 15.75Z" fill="#F8CA21"/>
<path d="M42 7H43.75V8.75H42V7Z" fill="#F8CA21"/>
<path d="M45.5 7H47.25V8.75H45.5V7Z" fill="#F8CA21"/>
<path d="M38.5 7H40.25V8.75H38.5V7Z" fill="#F8CA21"/>
<path d="M10.0696 37.1481L11.628 36.3519C10.5627 34.2695 9.90912 32.0012 9.70296 29.6712L7.95996 29.8287C8.18654 32.3814 8.9028 34.8665 10.0696 37.1481V37.1481Z" fill="#F8CA21"/>
<path d="M24.6585 46.0723L24.3418 47.7934C25.5487 48.0144 26.7732 48.1254 28.0002 48.125C30.504 48.1289 32.9863 47.6636 35.3187 46.753L34.6817 45.122C31.4923 46.3574 28.0233 46.6862 24.6585 46.0723Z" fill="#F8CA21"/>
<path d="M46.2996 26.3288L48.0426 26.1713C47.8156 23.6183 47.0981 21.1331 45.9295 18.8519L44.3711 19.6481C45.438 21.7301 46.0929 23.9985 46.2996 26.3288V26.3288Z" fill="#F8CA21"/>
<path d="M28.0002 9.62499C29.1209 9.62507 30.2394 9.72639 31.3419 9.92774L31.6586 8.20661C30.4517 7.98557 29.2272 7.87457 28.0002 7.87499C24.1022 7.86979 20.2873 9.00125 17.0225 11.1309L17.978 12.6C20.9583 10.6548 24.4412 9.62093 28.0002 9.62499V9.62499Z" fill="#F8CA21"/>
</svg>
