<svg width="579" height="733" viewBox="0 0 579 733" fill="none" xmlns="http://www.w3.org/2000/svg">
<path opacity="0.07" d="M430.822 503.525C430.822 547.482 394.588 581.125 353.162 581.125C311.736 581.125 275.501 547.482 275.501 503.525C275.501 459.567 311.736 425.924 353.162 425.924C397.2 425.924 430.822 459.524 430.822 503.525ZM502.517 291.257C502.517 335.215 466.282 368.858 424.856 368.858C383.43 368.858 347.196 335.215 347.196 291.257C347.196 247.3 383.43 213.657 424.856 213.657C468.894 213.657 502.517 247.257 502.517 291.257ZM576.867 81.6436C576.867 125.601 540.632 159.244 499.206 159.244C457.78 159.244 421.546 125.601 421.546 81.6436C421.546 37.6428 455.168 4.04343 499.206 4.04343C543.244 4.04343 576.867 37.6428 576.867 81.6436ZM157.321 653.138C157.321 697.096 121.087 730.738 79.6605 730.738C35.6227 730.738 2 697.139 2 653.138C2 609.137 35.6227 575.538 79.6605 575.538C123.698 575.538 157.321 609.137 157.321 653.138ZM229.016 503.525C229.016 547.482 192.781 581.125 151.355 581.125C107.317 581.125 73.6945 547.525 73.6945 503.525C73.6945 459.524 107.317 425.924 151.355 425.924C195.393 425.924 229.016 459.524 229.016 503.525ZM300.71 291.257C300.71 335.215 264.476 368.858 223.05 368.858C179.012 368.858 145.389 335.258 145.389 291.257C145.389 247.257 179.012 213.657 223.05 213.657C267.087 213.657 300.71 247.257 300.71 291.257ZM375.06 81.6436C375.06 125.601 338.825 159.244 297.399 159.244C255.973 159.244 219.739 125.601 219.739 81.6436C219.739 37.6428 253.362 4.04343 297.399 4.04343C341.437 4.04343 375.06 37.6428 375.06 81.6436Z" stroke="white" stroke-width="4"/>
<path opacity="0.05" fill-rule="evenodd" clip-rule="evenodd" d="M361.598 552.807C402.049 552.807 437.443 519.992 437.443 477.08C437.443 434.168 404.577 401.353 361.598 401.353C321.146 401.353 285.752 434.168 285.752 477.08C285.752 519.992 321.146 552.807 361.598 552.807ZM429.859 350.868C470.31 350.868 505.705 318.053 505.705 275.141C505.705 232.229 472.838 199.414 429.859 199.414C389.408 199.414 354.013 232.229 354.013 275.141C354.013 318.053 389.408 350.868 429.859 350.868ZM500.648 151.454C541.099 151.454 576.494 118.639 576.494 75.727C576.494 32.815 543.627 0 500.648 0C457.669 0 424.802 32.815 424.802 75.727C424.802 118.639 460.197 151.454 500.648 151.454ZM101.193 722.221C141.645 722.221 177.039 689.406 177.039 646.494C177.039 603.582 144.173 570.767 101.193 570.767C58.2142 570.767 25.3477 603.582 25.3477 646.494C25.3477 689.406 58.2142 722.221 101.193 722.221ZM169.455 552.807C209.906 552.807 245.301 519.992 245.301 477.08C245.301 434.168 212.434 401.353 169.455 401.353C126.475 401.353 93.6089 434.168 93.6089 477.08C93.6089 519.992 126.475 552.807 169.455 552.807ZM237.716 350.868C278.167 350.868 313.562 318.053 313.562 275.141C313.562 232.229 280.695 199.414 237.716 199.414C194.737 199.414 161.87 232.229 161.87 275.141C161.87 318.053 194.737 350.868 237.716 350.868ZM308.505 151.454C348.957 151.454 384.351 118.639 384.351 75.727C384.351 32.815 351.485 0 308.505 0C265.526 0 232.66 32.815 232.66 75.727C232.66 118.639 268.054 151.454 308.505 151.454Z" fill="white"/>
</svg>
