<svg width="60" height="60" viewBox="0 0 60 60" fill="none" xmlns="http://www.w3.org/2000/svg">
<path d="M15.1217 0C14.4745 0 13.9497 0.524883 13.9497 1.17199C13.9497 1.81922 14.4745 2.34398 15.1217 2.34398C21.742 2.34398 27.1279 7.86973 27.1279 14.6621C27.1279 15.3094 27.6528 15.8341 28.2999 15.8341C28.9471 15.8341 29.4719 15.3093 29.4719 14.6621C29.472 6.57738 23.0344 0 15.1217 0Z" fill="#F8CA21"/>
<path d="M15.1178 5.56021C14.4706 5.56021 13.9458 6.08509 13.9458 6.7322C13.9458 7.37943 14.4706 7.90419 15.1178 7.90419C18.743 7.90419 21.6922 10.9357 21.6922 14.6619C21.6922 15.3091 22.2171 15.8339 22.8642 15.8339C23.5115 15.8339 24.0362 15.309 24.0362 14.6619C24.0363 9.64325 20.0355 5.56021 15.1178 5.56021Z" fill="#F8CA21"/>
<path d="M15.1403 10.6822C14.4929 10.6822 13.9683 11.2069 13.9683 11.8542C13.9683 12.5014 14.4931 13.0262 15.1403 13.0262C15.9872 13.0262 16.676 13.7439 16.676 14.6261C16.676 15.2733 17.2008 15.798 17.848 15.798C18.4952 15.798 19.02 15.2732 19.02 14.6261C19.0201 12.4514 17.2795 10.6822 15.1403 10.6822Z" fill="#F8CA21"/>
<path d="M53.7294 9.28888H51.1315C50.4842 9.28888 49.9595 9.81364 49.9595 10.4609C49.9595 11.1081 50.4842 11.6329 51.1315 11.6329H53.7294C55.8943 11.6329 57.6556 13.3942 57.6556 15.5591V31.4684C57.6556 32.7149 57.071 33.8266 56.1624 34.5464V31.4815C56.1624 29.0904 54.4563 27.0367 52.1058 26.5983L51.3481 26.4571C51.5171 25.9391 51.6096 25.3872 51.6096 24.8135V22.1203C51.6096 19.1919 49.2272 16.8095 46.2988 16.8095C43.3704 16.8095 40.9881 19.1919 40.9881 22.1203V24.8135C40.9881 25.3872 41.0806 25.9391 41.2495 26.4571L40.4919 26.5983C38.1412 27.0366 36.4352 29.0903 36.4352 31.4815V34.8791C35.2507 34.2023 34.4499 32.9275 34.4499 31.4684V15.5591C34.4499 13.3942 36.2113 11.6329 38.3762 11.6329H41.1695C41.8167 11.6329 42.3415 11.1081 42.3415 10.4609C42.3415 9.81364 41.8166 9.28888 41.1695 9.28888H38.3762C34.9188 9.28888 32.106 12.1017 32.106 15.5591V31.4684C32.106 34.9257 34.9188 37.7386 38.3762 37.7386H44.2738V41.1083C44.2738 41.5816 44.5585 42.0087 44.9955 42.1903C45.1411 42.2509 45.2939 42.2803 45.4455 42.2803C45.7493 42.2803 46.048 42.1622 46.2719 41.9398L50.4996 37.7386H53.7294C57.1868 37.7386 59.9996 34.9257 59.9996 31.4684V15.5591C59.9996 12.1017 57.1868 9.28888 53.7294 9.28888ZM43.3319 22.1203C43.3319 20.4844 44.6627 19.1535 46.2986 19.1535C47.9346 19.1535 49.2655 20.4844 49.2655 22.1203V24.8135C49.2655 26.4495 47.9346 27.7804 46.2986 27.7804C44.6627 27.7804 43.3319 26.4495 43.3319 24.8135V22.1203ZM53.8181 35.3921C53.7885 35.3928 53.759 35.3944 53.7292 35.3944H50.0163V35.3946C49.7067 35.3946 49.4097 35.5171 49.1901 35.7352L46.6178 38.2915V36.5665C46.6178 35.9193 46.0929 35.3945 45.4458 35.3945H38.7793V31.4814C38.7793 30.2187 39.6804 29.134 40.9216 28.9024L42.5738 28.5943C43.5331 29.5397 44.8487 30.1242 46.2988 30.1242C47.7487 30.1242 49.0645 29.5395 50.0238 28.5942L51.6761 28.9023C52.9175 29.1339 53.8185 30.2184 53.8185 31.4814V35.3921H53.8181Z" fill="#F8CA21"/>
<path d="M46.4121 9.6327C46.1943 9.41356 45.8918 9.28934 45.5836 9.28934C45.2754 9.28934 44.9729 9.41356 44.755 9.6327C44.537 9.84961 44.4116 10.1521 44.4116 10.4613C44.4116 10.7695 44.5369 11.072 44.755 11.29C44.9729 11.5078 45.2753 11.6333 45.5836 11.6333C45.8918 11.6333 46.1943 11.5079 46.4121 11.29C46.6301 11.0708 46.7556 10.7696 46.7556 10.4613C46.7556 10.152 46.6302 9.85067 46.4121 9.6327Z" fill="#F8CA21"/>
<path d="M21.7824 39.4262C21.5644 39.2082 21.2632 39.0829 20.9537 39.0829C20.6455 39.0829 20.3431 39.2082 20.1252 39.4262C19.9072 39.6442 19.7817 39.9465 19.7817 40.2548C19.7817 40.5642 19.9071 40.8655 20.1252 41.0835C20.3442 41.3026 20.6455 41.4279 20.9537 41.4279C21.2619 41.4279 21.5644 41.3026 21.7824 41.0835C22.0015 40.8655 22.1257 40.5641 22.1257 40.2548C22.1257 39.9466 22.0015 39.6443 21.7824 39.4262Z" fill="#F8CA21"/>
<path d="M47.4354 50.0238L38.4565 41.0448C37.2612 39.8495 35.3808 39.6746 33.9858 40.6287L28.2551 44.5472C27.79 44.8651 27.1635 44.8069 26.765 44.4083L24.8699 42.5131C24.4124 42.0558 23.6705 42.0556 23.2123 42.5131C22.7547 42.9708 22.7547 43.7128 23.2123 44.1708L25.1073 46.0659C26.3027 47.2611 28.1828 47.4363 29.5781 46.4821L35.3088 42.5637C35.7736 42.2457 36.4004 42.3039 36.7989 42.7024L45.7779 51.6814C46.2348 52.1382 46.2347 52.8819 45.7778 53.339C40.0202 59.0967 30.6516 59.0967 24.8939 53.339L6.66169 35.1065C3.87239 32.3174 2.33653 28.6091 2.33653 24.6646C2.33653 20.72 3.87251 17.0116 6.66181 14.2223C6.88317 14.001 7.17743 13.8792 7.49044 13.8792C7.80356 13.8792 8.09794 14.0011 8.31919 14.2224L17.2981 23.2015C17.6964 23.5998 17.7548 24.2266 17.437 24.6916L13.5187 30.4223C12.5644 31.8174 12.7395 33.6976 13.9347 34.893L16.7833 37.7416C17.241 38.1991 17.9829 38.1991 18.4409 37.7416C18.8985 37.284 18.8985 36.5419 18.4409 36.084L15.5923 33.2354C15.194 32.8371 15.1356 32.2104 15.4536 31.7454L19.372 26.0147C20.326 24.6194 20.1509 22.7392 18.9557 21.544L9.97681 12.5649C8.60595 11.1941 6.37528 11.1941 5.00419 12.5649C-1.66741 19.2367 -1.66741 30.0923 5.00419 36.764L23.2364 54.9962C26.5723 58.3321 30.9541 60 35.3358 60C39.7177 59.9999 44.0995 58.3319 47.4353 54.9962C48.8062 53.6253 48.8062 51.3948 47.4354 50.0238Z" fill="#F8CA21"/>
<path d="M15.788 28.8186L8.68344 21.714C8.22559 21.2565 7.48368 21.2565 7.02583 21.714C6.56821 22.1718 6.56821 22.9139 7.02583 23.3717L14.1305 30.4763C14.3594 30.705 14.6592 30.8195 14.9593 30.8195C15.2592 30.8195 15.5592 30.705 15.788 30.4763C16.2457 30.0185 16.2457 29.2764 15.788 28.8186Z" fill="#F8CA21"/>
<path d="M42.9795 56.01L35.5042 48.5347C35.0464 48.0772 34.3045 48.0772 33.8466 48.5347C33.389 48.9924 33.389 49.7346 33.8466 50.1923L41.3219 57.6676C41.5508 57.8963 41.8505 58.0108 42.1506 58.0108C42.4505 58.0108 42.7505 57.8963 42.9795 57.6676C43.4371 57.2097 43.4371 56.4677 42.9795 56.01Z" fill="#F8CA21"/>
</svg>
