<svg width="96" height="69" fill="none" xmlns="http://www.w3.org/2000/svg"><path d="M1 66.5a1 1 0 1 0 0 2v-2zM94.747 2.469A1 1 0 0 0 94.253.53l.494 1.938zM1.508 68.499a1 1 0 1 0-.012-2l.012 2zm9.65-2.691a1 1 0 1 0 .278 1.98l-.278-1.98zm1.277 1.832a1 1 0 1 0-.306-1.976l.306 1.977zm9.12-4.154a1 1 0 1 0 .595 1.91l-.595-1.91zm1.547 1.605a1 1 0 0 0-.624-1.9l.624 1.9zm8.306-5.597a1 1 0 0 0 .901 1.786l-.9-1.786zm1.786 1.331a1 1 0 0 0-.926-1.772l.926 1.773zm7.327-6.852a1 1 0 1 0 1.16 1.63l-1.16-1.63zm1.967 1.047a1 1 0 0 0-1.18-1.615l1.18 1.615zm6.312-7.795a1 1 0 0 0 1.354 1.472l-1.355-1.472zm2.083.794a1 1 0 1 0-1.369-1.458l1.369 1.458zm5.436-8.434a1 1 0 1 0 1.486 1.339l-1.486-1.34zm2.145.602a1 1 0 1 0-1.495-1.329l1.495 1.33zm4.798-8.823a1 1 0 1 0 1.561 1.25l-1.561-1.25zm2.174.482A1 1 0 0 0 63.87 30.6l1.566 1.245zm4.463-9.002a1 1 0 1 0 1.585 1.22l-1.585-1.22zm2.181.445a1 1 0 0 0-1.584-1.22l1.584 1.22zm4.549-8.959a1 1 0 1 0 1.537 1.28l-1.537-1.28zm2.158.538a1 1 0 1 0-1.527-1.29l1.527 1.29zm5.367-8.51a1 1 0 1 0 1.324 1.499l-1.324-1.5zm2.047.875a1 1 0 1 0-1.287-1.53l1.287 1.53zM93.752.667a1 1 0 1 0 .553 1.922L93.752.667zM1 68.5c.17 0 .34 0 .508-.002l-.012-2L1 66.5v2zm10.436-.712a70.42 70.42 0 0 0 1-.147l-.307-1.977c-.322.05-.646.098-.971.144l.278 1.98zm10.714-2.392c.319-.1.636-.201.952-.305l-.624-1.9c-.306.1-.613.199-.923.295l.595 1.91zm10.159-4.116c.297-.15.592-.301.885-.455l-.926-1.772a63.18 63.18 0 0 1-.86.441l.901 1.786zm9.372-5.678c.27-.192.54-.387.807-.582l-1.18-1.615c-.261.191-.523.38-.787.568l1.16 1.63zm8.473-6.905c.244-.225.487-.451.729-.678l-1.369-1.458c-.237.222-.475.444-.715.664l1.355 1.472zm7.65-7.773c.222-.245.441-.49.66-.736l-1.495-1.33c-.215.243-.432.485-.65.727l1.486 1.339zm7.02-8.31l.612-.768L63.87 30.6c-.202.254-.404.509-.608.763l1.561 1.25zm6.66-8.55l.596-.775-1.584-1.22c-.198.257-.398.515-.597.775l1.585 1.22zm6.682-8.455l.621-.74-1.527-1.291c-.21.248-.42.499-.631.752l1.537 1.28zm7.312-7.752c.241-.213.482-.421.724-.624l-1.288-1.53c-.254.213-.507.431-.76.655l1.324 1.499zm8.827-5.268c.147-.042.295-.082.442-.12L94.253.53c-.168.043-.335.088-.5.136l.552 1.922z" fill="#FFAF24"/></svg>