<svg width="96" height="68" fill="none" xmlns="http://www.w3.org/2000/svg"><path d="M95 66a1 1 0 1 1 0 2v-2zM1.253 1.969A1 1 0 0 1 1.747.03l-.494 1.94zm93.239 66.03a1 1 0 1 1 .012-2l-.012 2zm-9.65-2.691a1 1 0 1 1-.278 1.98l.278-1.98zm-1.278 1.832a1 1 0 1 1 .307-1.976l-.306 1.977zm-9.12-4.154a1 1 0 1 1-.594 1.91l.595-1.91zm-1.546 1.605a1 1 0 0 1 .624-1.9l-.624 1.9zm-8.306-5.597a1 1 0 0 1-.901 1.786l.9-1.786zm-1.786 1.331a1 1 0 0 1 .926-1.772l-.926 1.773zm-7.327-6.852a1 1 0 1 1-1.16 1.63l1.16-1.63zm-1.967 1.047a1 1 0 0 1 1.18-1.615l-1.18 1.615zM47.2 46.725a1 1 0 0 1-1.354 1.472l1.355-1.472zm-2.083.794a1 1 0 1 1 1.369-1.458l-1.369 1.458zm-5.436-8.434a1 1 0 1 1-1.486 1.339l1.486-1.34zm-2.145.602a1 1 0 1 1 1.495-1.329l-1.495 1.33zm-4.798-8.823a1 1 0 1 1-1.561 1.25l1.561-1.25zm-2.174.482A1 1 0 0 1 32.13 30.1l-1.566 1.245zm-4.463-9.002a1 1 0 1 1-1.584 1.22l1.584-1.22zm-2.181.445a1 1 0 0 1 1.584-1.22l-1.584 1.22zm-4.55-8.959a1 1 0 1 1-1.537 1.28l1.537-1.28zm-2.159.538a1 1 0 1 1 1.528-1.29l-1.527 1.29zm-5.366-8.51a1 1 0 1 1-1.324 1.499l1.324-1.5zm-2.048.875a1 1 0 1 1 1.288-1.53l-1.288 1.53zM2.248.167a1 1 0 1 1-.553 1.922L2.248.167zM95 68c-.17 0-.34 0-.508-.002l.012-2L95 66v2zm-10.436-.712a70.42 70.42 0 0 1-1-.147l.307-1.977c.322.05.646.098.971.144l-.278 1.98zM73.85 64.896c-.319-.1-.636-.201-.952-.305l.624-1.9c.306.1.613.199.922.295l-.594 1.91zM63.691 60.78c-.297-.15-.592-.301-.885-.455l.926-1.772c.285.149.572.296.86.441l-.901 1.786zm-9.372-5.678c-.27-.192-.54-.387-.807-.582l1.18-1.615c.261.191.523.38.787.568l-1.16 1.63zm-8.473-6.905c-.244-.225-.487-.451-.729-.678l1.369-1.458c.237.222.475.444.715.664l-1.355 1.472zm-7.65-7.773c-.222-.245-.441-.49-.66-.736l1.495-1.33c.215.243.432.485.65.727l-1.486 1.339zm-7.02-8.31l-.612-.768L32.13 30.1c.202.254.404.509.608.763l-1.561 1.25zm-6.66-8.55l-.596-.775 1.584-1.22c.198.257.398.515.597.775l-1.584 1.22zm-6.682-8.455c-.208-.249-.415-.496-.622-.74l1.528-1.291c.21.248.42.499.631.752l-1.537 1.28zm-7.312-7.752a37.012 37.012 0 0 0-.724-.624l1.288-1.53c.254.213.507.431.76.655l-1.324 1.499zM1.695 2.089a15.262 15.262 0 0 0-.442-.12L1.747.03c.168.043.335.088.5.136l-.552 1.922z" fill="#FFAF24"/></svg>