<svg width="46" height="45" fill="none" xmlns="http://www.w3.org/2000/svg"><g clip-path="url(#clip0)" fill="#ACACAC"><path d="M23 0a.75.75 0 0 0-.75.75v4.5a.75.75 0 0 0 1.5 0V.75A.75.75 0 0 0 23 0zm-2.908 1.689l-.13-.739a.75.75 0 0 0-1.478.26l.13.74a.75.75 0 0 0 .87.607.75.75 0 0 0 .608-.868zm-3.57.821l-.256-.705a.75.75 0 1 0-1.41.513l.256.705a.75.75 0 1 0 1.41-.513zm-6.447 3.421l-.483-.575a.75.75 0 0 0-1.149.964l.482.575a.75.75 0 1 0 1.15-.964zm-2.68 2.495l-.575-.483a.75.75 0 0 0-.963 1.15l.574.482a.75.75 0 1 0 .964-1.15zm-3.873 6.186l-.704-.255a.75.75 0 1 0-.513 1.41l.705.255a.75.75 0 0 0 .512-1.41zM2.45 18.115l-.74-.13a.75.75 0 1 0-.26 1.477l.739.13a.75.75 0 0 0 .26-1.478zm.608 7.901a.75.75 0 0 0-.869-.608l-.739.13a.75.75 0 1 0 .26 1.478l.74-.13a.75.75 0 0 0 .608-.87zm.913 3.411a.75.75 0 0 0-.96-.45l-.706.257a.75.75 0 1 0 .513 1.41l.704-.256a.75.75 0 0 0 .45-.961zm3.519 6.068a.75.75 0 0 0-1.059-.071l-.575.482a.75.75 0 0 0 .964 1.15l.575-.483a.75.75 0 0 0 .095-1.078zm2.491 2.495a.75.75 0 0 0-1.054.115l-.482.575a.75.75 0 0 0 1.149.964l.482-.575a.75.75 0 0 0-.095-1.079zm6.092 3.539a.75.75 0 0 0-.96.449l-.256.704a.75.75 0 1 0 1.409.513l.256-.705a.75.75 0 0 0-.449-.961zm3.411.913a.75.75 0 0 0-.87.609l-.13.738a.75.75 0 0 0 1.478.26l.13-.738a.75.75 0 0 0-.608-.869zm8.032 1.348l-.13-.74a.75.75 0 1 0-1.478.261l.13.739a.75.75 0 0 0 .869.608.75.75 0 0 0 .609-.869zm3.627-1.108l-.255-.704a.75.75 0 0 0-1.41.512l.256.705a.75.75 0 1 0 1.41-.513zm6.412-4.002l-.482-.575a.75.75 0 1 0-1.149.964l.482.575a.75.75 0 1 0 1.149-.964zm2.589-2.774l-.575-.482a.75.75 0 1 0-.964 1.149l.575.482a.75.75 0 1 0 .964-1.149zm3.551-6.672l-.705-.256a.75.75 0 1 0-.513 1.41l.705.255a.75.75 0 1 0 .513-1.409zm.855-3.696l-.739-.13a.75.75 0 0 0-.26 1.477l.738.13a.75.75 0 0 0 .26-1.478zm.608-6.945a.75.75 0 0 0-.869-.609l-.738.13a.75.75 0 1 0 .26 1.478l.739-.13a.75.75 0 0 0 .608-.87zm-1.006-3.807a.75.75 0 0 0-.97-.43l-.705.256a.75.75 0 1 0 .513 1.41l.705-.256a.75.75 0 0 0 .457-.98zm-3.918-6.728a.75.75 0 0 0-1.054-.115l-.575.483a.75.75 0 0 0 .964 1.149l.575-.483a.75.75 0 0 0 .09-1.034zm-2.768-2.772a.75.75 0 0 0-1.058.07l-.483.575a.75.75 0 1 0 1.15.964l.482-.575a.75.75 0 0 0-.09-1.034zm-6.779-3.947a.75.75 0 0 0-.953.466l-.256.705a.752.752 0 0 0 .705 1.007.75.75 0 0 0 .705-.494l.256-.705a.75.75 0 0 0-.457-.98zm-3.78-.997a.75.75 0 0 0-.869.608l-.13.739a.75.75 0 0 0 1.477.26l.13-.739a.75.75 0 0 0-.608-.868zM14.274 5.887l-1.5-2.598a.75.75 0 0 0-1.3.75l1.5 2.598a.75.75 0 1 0 1.3-.75zm-7.138 6.589l-2.598-1.5a.75.75 0 0 0-.75 1.299l2.598 1.5a.75.75 0 0 0 .75-1.3zm.278 19.017a.75.75 0 0 0-1.027-.267l-2.598 1.5a.75.75 0 1 0 .75 1.299l2.598-1.5.01-.006a.75.75 0 0 0 .267-1.026zm6.585 6.589a.75.75 0 0 0-1.023.281l-1.5 2.598a.75.75 0 0 0 1.3.75l1.5-2.598.004-.008a.75.75 0 0 0-.28-1.023zm20.525 2.879l-1.5-2.598a.75.75 0 0 0-1.3.75l1.5 2.598a.75.75 0 1 0 1.3-.75zm7.686-8.236l-2.598-1.5a.75.75 0 0 0-.75 1.3l2.599 1.5a.75.75 0 0 0 .75-1.299zm.275-21.468a.75.75 0 0 0-1.023-.281l-2.598 1.5a.75.75 0 0 0 .75 1.298l2.598-1.5a.75.75 0 0 0 .273-1.017zm-8.232-8.236a.75.75 0 0 0-1.027.268l-1.5 2.598a.75.75 0 1 0 1.3.75l1.5-2.598a.75.75 0 0 0-.273-1.018zM5.75 21.75h-4.5a.75.75 0 0 0 0 1.5h4.5a.75.75 0 0 0 0-1.5zM23 39a.75.75 0 0 0-.75.75v4.5a.75.75 0 0 0 1.5 0v-4.5A.75.75 0 0 0 23 39zm21.75-17.25H39.5a.75.75 0 0 0 0 1.5h5.25a.75.75 0 0 0 0-1.5zm-11.078-9.884a.75.75 0 0 0-1.06 0l-8.09 8.088a2.949 2.949 0 0 0-1.5-.389 2.985 2.985 0 0 0-1.409.392l-3.848-3.849A.751.751 0 1 0 16.7 17.17l3.817 3.817a3.004 3.004 0 1 0 5.09 0l8.065-8.06a.75.75 0 0 0 0-1.06zm-9.483 11.742a1.5 1.5 0 0 1-2.164.034 1.5 1.5 0 0 1 1.02-2.577c.4-.011.785.142 1.068.423a1.5 1.5 0 0 1 .076 2.12z"/></g><defs><clipPath id="clip0"><path fill="#fff" transform="translate(.5)" d="M0 0h45v45H0z"/></clipPath></defs></svg>