<svg width="50" height="50" fill="none" xmlns="http://www.w3.org/2000/svg"><path d="M49.91 40.48a4.225 4.225 0 0 0-1.87-2.718 4.227 4.227 0 0 0-3.248-.566l-5.212 1.193v-2.13a20.59 20.59 0 0 0 2.908-3.445 20.195 20.195 0 0 0 2.855-6.724c.638-2.856.652-5.88.039-8.745a.976.976 0 1 0-1.91.41 18.622 18.622 0 0 1-.036 7.909 18.25 18.25 0 0 1-2.58 6.075 17.403 17.403 0 0 1-1.276 1.684V22.6a.976.976 0 0 0-.976-.977h-7.726v-10.43a.977.977 0 0 0-.973-.976l-8.701-.03H21.2a.974.974 0 0 0-.977.977v5.425h-7.726a.977.977 0 0 0-.977.977v9.67H9.345V25.91a.976.976 0 0 0-.976-.976H7.367c-.17-.94-.27-1.893-.293-2.845a18.344 18.344 0 0 1 1.705-8.22.977.977 0 0 0-1.77-.825 20.305 20.305 0 0 0-1.887 9.093c.023.935.112 1.872.264 2.797H.976A.977.977 0 0 0 0 25.91v17.165c0 .54.437.977.977.977h7.392c.54 0 .976-.437.976-.977v-.928h3.674l14.88 5.837a11.77 11.77 0 0 0 7.228.452L46.79 45.47a4.249 4.249 0 0 0 3.12-4.992zM37.627 23.574v15.261l-2.61.598a9.912 9.912 0 0 1-4.124.06l-.015-.004v-1.48c.745-1.111.992-2.52.602-3.805a4.388 4.388 0 0 0-.6-1.237c0-.001 0-.002-.002-.003v-9.39h6.75zm-15.45-11.43l6.749.022v19.247l-3.772-1.561-2.977-1.233V12.145zm-8.703 6.397h6.749v9.27l-1.211-.502a.973.973 0 0 0-.374-.074h-5.164v-8.694zM7.392 42.1H1.953V26.886h5.439V42.1zm38.917 1.48l-11.663 2.964a9.82 9.82 0 0 1-6.034-.378L13.56 40.261a.976.976 0 0 0-.357-.067H9.345V29.19h9.099l6.318 2.616 3.458 1.43c1.223.508 1.809 1.943 1.307 3.165a2.518 2.518 0 0 1-2.95 1.57l-.023-.006a2.419 2.419 0 0 1-.168-.049l-6.571-2.526-.082-.031a.976.976 0 1 0-.7 1.823s3.704 1.424 6.53 2.514c.056.022.113.042.17.061l2.169.835c.656.252 1.308.503 1.99.677a11.793 11.793 0 0 0 5.561.07l3.369-.771.01-.003 6.396-1.464a2.286 2.286 0 0 1 1.758.306c.525.337.884.86 1.011 1.47a2.299 2.299 0 0 1-1.688 2.702zM12.488 8.215a.972.972 0 0 0 .654-.251 18.564 18.564 0 0 1 6.02-3.631 18.602 18.602 0 0 1 7.54-1.071c1.828.12 3.62.51 5.324 1.16a.976.976 0 1 0 .695-1.825 20.265 20.265 0 0 0-5.891-1.284 20.567 20.567 0 0 0-8.339 1.185 20.534 20.534 0 0 0-6.657 4.016.976.976 0 0 0 .654 1.701z" fill="#E8E8E8"/><path d="M34.657 15.185a.976.976 0 0 0 1.378-.096l8.034-9.25a.976.976 0 1 0-1.474-1.28l-8.035 9.248a.976.976 0 0 0 .097 1.378zm7.2-4.175a2.454 2.454 0 0 0-2.452 2.451c0 1.352 1.1 2.452 2.452 2.452 1.352 0 2.452-1.1 2.452-2.452 0-1.352-1.1-2.451-2.452-2.451zm0 2.95a.499.499 0 1 1 0-.998.499.499 0 0 1 0 .998zm-5.423-5.124c1.352 0 2.452-1.1 2.452-2.452 0-1.352-1.1-2.452-2.452-2.452a2.454 2.454 0 0 0-2.451 2.452c0 1.352 1.1 2.452 2.451 2.452zm0-2.951a.5.5 0 1 1-.001.999.5.5 0 0 1 .001-.999zM9.016 10.51a.984.984 0 0 0 .95.602.986.986 0 0 0 .88-.677.984.984 0 0 0-.334-1.073.987.987 0 0 0-1.136-.037.985.985 0 0 0-.36 1.185z" fill="#E8E8E8"/></svg>