<svg width="50" height="50" fill="none" xmlns="http://www.w3.org/2000/svg"><path d="M47.07 8.398H31.445a2.933 2.933 0 0 0-2.93 2.93v2.93H2.93A2.931 2.931 0 0 0 0 17.188v21.484a2.932 2.932 0 0 0 2.93 2.93h36.328a2.93 2.93 0 0 0 2.93-2.93V25.977h4.882a2.933 2.933 0 0 0 2.93-2.93V11.328a2.933 2.933 0 0 0-2.93-2.93zm-18.4 15.578l-6.936 5.121a.967.967 0 0 1-1.249.024l-.012-.01-16.66-12.9h24.704v6.836c0 .317.053.631.153.93zM1.953 17.242l13.164 10.192L1.953 38.508V17.242zm14.744 11.416l2.573 1.993a2.92 2.92 0 0 0 1.824.642 2.92 2.92 0 0 0 1.814-.635l2.661-1.965 13.424 10.955H3.63l13.067-10.99zm23.537 9.482L27.191 27.496l2.679-1.978a2.92 2.92 0 0 0 1.575.459h8.79V38.14zm7.813-15.093a.977.977 0 0 1-.977.976H31.445a.976.976 0 0 1-.976-.976V11.328c0-.538.438-.976.976-.976H47.07c.539 0 .977.438.977.976v11.719z" fill="#E8E8E8"/><path d="M43.164 14.258a2.933 2.933 0 0 0-2.762 3.906h-2.289a2.933 2.933 0 0 0-2.762-3.906 2.933 2.933 0 0 0-2.93 2.93 2.933 2.933 0 0 0 2.93 2.93h7.813a2.933 2.933 0 0 0 2.93-2.93 2.933 2.933 0 0 0-2.93-2.93zm-7.812 1.953a.977.977 0 0 1 0 1.953.978.978 0 0 1 0-1.953zm7.812 1.953a.978.978 0 0 1 0-1.953.977.977 0 0 1 0 1.953z" fill="#E8E8E8"/></svg>