<svg width="50" height="50" fill="none" xmlns="http://www.w3.org/2000/svg"><g clip-path="url(#clip0)" fill-rule="evenodd" clip-rule="evenodd" fill="#E8E8E8"><path d="M40.316 25.037c0-8.446-6.87-15.317-15.316-15.317-8.446 0-15.317 6.871-15.317 15.317 0 8.445 6.871 15.316 15.317 15.316s15.316-6.87 15.316-15.316zM25 38.401c-7.369 0-13.364-5.995-13.364-13.364 0-7.369 5.995-13.364 13.364-13.364 7.368 0 13.364 5.995 13.364 13.364 0 7.369-5.995 13.364-13.364 13.364z"/><path d="M28.719 4.43c9.975 1.789 17.216 10.454 17.216 20.607a.976.976 0 1 0 1.954 0 22.901 22.901 0 0 0-5.4-14.766 22.921 22.921 0 0 0-13.426-7.763.977.977 0 0 0-.344 1.923zm-7.782 43.136a.976.976 0 0 0 .345-1.922c-9.978-1.79-17.218-10.456-17.218-20.608a.977.977 0 0 0-1.954 0 22.902 22.902 0 0 0 5.4 14.766 22.92 22.92 0 0 0 13.426 7.763zm12.828-23.375l-12.792-7.386a.977.977 0 0 0-1.465.846v14.772a.976.976 0 0 0 1.465.845l12.792-7.385a.977.977 0 0 0 0-1.692zm-12.304 6.54V19.342l9.863 5.695-9.863 5.694zM2.828 20.42c.017.03.035.06.054.088l.016.022a.985.985 0 0 0 .075.09l.021.02a.976.976 0 0 0 .069.063l.025.02a.97.97 0 0 0 .203.12l.03.013.083.029.035.01.018.005c.02.005.041.008.062.011l.042.008a1.017 1.017 0 0 0 .254-.002.848.848 0 0 0 .084-.016l.02-.004a.97.97 0 0 0 .1-.03l.023-.01a.797.797 0 0 0 .084-.038l.013-.005 5.128-2.706a.977.977 0 0 0-.911-1.728l-3.081 1.626A20.899 20.899 0 0 1 21.28 4.431a.977.977 0 0 0-.344-1.922 22.785 22.785 0 0 0-11.68 5.915 22.836 22.836 0 0 0-5.83 8.949L1.84 14.366a.977.977 0 0 0-1.728.911l2.706 5.129.01.014zm47.059 14.377l-2.706-5.129-.016-.026a.77.77 0 0 0-.026-.045c-.01-.013-.018-.026-.027-.04l-.028-.037a1.043 1.043 0 0 0-.032-.038l-.03-.033a.758.758 0 0 0-.07-.066.704.704 0 0 0-.076-.06.73.73 0 0 0-.12-.07 1.006 1.006 0 0 0-.133-.056l-.052-.015-.028-.008c-.004-.002-.009-.002-.013-.003a.841.841 0 0 0-.056-.01c-.013-.002-.026-.005-.04-.006a.813.813 0 0 0-.054-.005l-.042-.002h-.052l-.043.002a1.018 1.018 0 0 0-.051.006l-.044.006-.049.01-.044.011a.68.68 0 0 0-.18.07l-.014.007-5.128 2.706a.977.977 0 1 0 .911 1.727l3.081-1.625A20.9 20.9 0 0 1 28.72 45.642a.976.976 0 0 0 .344 1.922 22.778 22.778 0 0 0 11.68-5.915 22.838 22.838 0 0 0 5.83-8.948l1.587 3.007a.976.976 0 1 0 1.727-.911z"/></g><defs><clipPath id="clip0"><path fill="#fff" d="M0 0h50v50H0z"/></clipPath></defs></svg>