<svg width="50" height="50" fill="none" xmlns="http://www.w3.org/2000/svg"><path d="M9.414 28.638H4.475a1.02 1.02 0 0 0 0 2.04h4.94a1.02 1.02 0 0 0 0-2.04zm0 5.772H4.475a1.02 1.02 0 1 0 0 2.041h4.94a1.02 1.02 0 1 0 0-2.04zm0-2.886H4.475a1.02 1.02 0 1 0 0 2.041h4.94a1.02 1.02 0 1 0 0-2.04z" fill="#E8E8E8"/><path d="M13.586 26.467l-4.23-4.23a1.02 1.02 0 0 0-.72-.298h-7.61a1.02 1.02 0 0 0-1.021 1.02v15.408c0 .564.457 1.02 1.02 1.02H8.95a1.02 1.02 0 1 0 0-2.04H2.046V23.98h5.569v3.208c0 .564.457 1.02 1.02 1.02h3.209v6.79a1.02 1.02 0 0 0 2.04 0v-7.81c0-.27-.107-.53-.298-.721zm-3.93-.3v-.744l.745.745h-.745zm37.594 6.727l-.003-11.873c0-.709-.276-1.375-.776-1.875s-1.167-.777-1.876-.777c-.709 0-1.374.276-1.875.776a2.638 2.638 0 0 0-.776 1.875l.002 11.874c0 .188.052.363.14.514l1.63 2.796a1.02 1.02 0 0 0 1.764 0l1.63-2.796c.09-.155.14-.332.14-.514zm-3.087-12.305a.608.608 0 0 1 1.04.366h-1.216a.605.605 0 0 1 .175-.366zm-.176 11.285l-.002-8.879h1.222l.002 8.879h-1.222z" fill="#E8E8E8"/><path d="M45.665 41.205h-5.661v-.145c0-1.99-1.2-3.879-2.92-4.595l-6.566-2.736a.623.623 0 0 1-.385-.577v-1.588s2.704-1.552 2.722-1.564c1.336-.881 2.213-2.45 2.346-4.195l.001-.03a3.311 3.311 0 0 0 2.288-3.145 3.29 3.29 0 0 0-.263-1.289c3.85-6.824 3.081-11.535 1.734-14.304-1.793-3.683-5.465-5.749-8.118-6.11a4.684 4.684 0 0 0-.786-.038C28.764.31 27.235 0 25.547 0c-5.809 0-9.143 2.846-10.918 5.233-2.05 2.76-2.846 5.923-2.92 8.089-1.27 1.898-1.709 3.952-1.268 5.962.588 2.679 2.612 4.794 4.355 5.937 0 .232.002.567.003.584.134 1.752 1.005 3.32 2.33 4.195.018.012 2.738 1.568 2.738 1.568v1.584c0 .253-.151.48-.385.577l-6.567 2.736c-1.718.716-2.919 2.606-2.919 4.595v6.9H4.335a1.02 1.02 0 1 0 0 2.04h41.33a1.02 1.02 0 0 0 1.02-1.02v-6.755a1.02 1.02 0 0 0-1.02-1.02zM33.548 4.086c1.35.814 2.715 2.072 3.578 3.844 1.547 3.18 1.08 7.243-1.346 11.805a3.31 3.31 0 0 0-.587-.253l-.01-.79c-.002-3.312-1.577-4.314-3.561-5.118a14.919 14.919 0 0 0 1.58-2.46c1.277-2.511 1.394-4.986.346-7.028zm-18.77 18.105v.437c-1.075-.987-2.023-2.321-2.343-3.782-.34-1.545.037-3.094 1.119-4.603a1.02 1.02 0 0 0 .19-.594c0-1.755.662-4.694 2.523-7.199 2.175-2.926 5.297-4.41 9.28-4.41 2.78 0 4.975.98 6.021 2.685.914 1.49.848 3.43-.182 5.456-1.87 3.608-4.4 5.289-7.962 5.289-2.452 0-4.583.641-6.162 1.855-1.602 1.232-2.484 2.96-2.484 4.866zm3.45 6.09c-.78-.528-1.297-1.494-1.391-2.595 0 0-.01-.842-.027-.916.005-.043 0-2.579 0-2.579 0-2.756 2.725-4.68 6.614-4.68 2.591 0 4.817-.787 6.66-2.346 2.287.87 3.059 1.176 3.059 3.534v.013l.02 1.645a1.02 1.02 0 0 0 1.02 1.008 1.267 1.267 0 0 1 1.266 1.265c0 .698-.568 1.265-1.265 1.265a1.02 1.02 0 0 0-1.02 1.02v.77c-.094 1.08-.63 2.068-1.41 2.596l-5.478 3.141a.906.906 0 0 0-.055.034 2.16 2.16 0 0 1-2.443 0 .863.863 0 0 0-.056-.034l-5.494-3.141zm6.777 9.21l-3.304-3.31c.133-.32.207-.667.207-1.029v-.417l.775.443a4.242 4.242 0 0 0 2.317.698c.8 0 1.602-.233 2.318-.698l.774-.444v.418c0 .364.075.714.21 1.036l-3.297 3.304zm3.114-.23l-.438 2.815-1.216-1.158 1.654-1.657zm-4.574 1.657l-1.216 1.158-.438-2.815 1.654 1.657zm14.418 3.307v5.734H12.037v-6.9c0-1.15.715-2.315 1.663-2.71l5.912-2.463 1 6.43a1.02 1.02 0 0 0 1.712.583l2.68-2.553 2.681 2.553a1.02 1.02 0 0 0 1.712-.582l1-6.427 5.903 2.46c.948.394 1.663 1.56 1.663 2.71v1.165zm6.682 5.734h-4.641v-1.336h4.64v1.336zm0-3.377h-4.641v-1.336h4.64v1.336z" fill="#E8E8E8"/></svg>