<svg width="50" height="50" fill="none" xmlns="http://www.w3.org/2000/svg"><path d="M38.147 35.514l-4.642-1.547-1.666-3.333c1.5-1.528 2.543-3.55 2.895-5.658l.207-1.245h1.778a2.933 2.933 0 0 0 2.93-2.93v-6.153C39.648 6.571 33.076 0 25 0c-8.098 0-14.648 6.552-14.648 14.648v6.153c0 1.273.816 2.358 1.953 2.762v1.144a2.933 2.933 0 0 0 2.93 2.93h.857a10.593 10.593 0 0 0 2.068 3l-1.665 3.33-4.642 1.547c-5.397 1.8-9.314 7.481-9.314 13.51 0 .539.437.976.977.976h42.968c.54 0 .977-.437.977-.977 0-6.028-3.917-11.71-9.314-13.509zm-.452-14.713a.978.978 0 0 1-.976.976h-1.49c.248-1.922.413-3.969.48-5.984l.005-.168h1.981v5.176zm-24.414.976a.978.978 0 0 1-.976-.976v-5.176h1.982l.01.307v.012c.07 1.96.232 3.953.475 5.833h-1.49zm1.953 3.907a.978.978 0 0 1-.976-.977v-.977h.8l.208 1.247c.04.236.089.472.145.707h-.177zm-.975-12.012h-1.917C12.836 7.127 18.299 1.953 25 1.953c6.672 0 12.158 5.173 12.658 11.719h-1.917c-.07-5.393-4.463-9.766-9.867-9.766h-1.748c-5.404 0-9.796 4.373-9.867 9.766zm9.867-7.813h1.748c4.376 0 7.918 3.58 7.915 7.95 0 .308-.002.575-.008.819v.01l-1.221-.175a15.692 15.692 0 0 1-8.823-4.411.977.977 0 0 0-.69-.286 8.835 8.835 0 0 0-6.793 3.213c.41-3.976 3.77-7.12 7.872-7.12zm-6.69 19.825c-.49-1.627-1.049-6.412-1.172-9.478l1.314-1.753a6.874 6.874 0 0 1 5.083-2.723 17.664 17.664 0 0 0 9.623 4.666l1.437.206a60.122 60.122 0 0 1-.574 5.97c-.09.605-.16.995-.34 2.083-.517 3.102-2.832 5.907-5.887 6.671a7.945 7.945 0 0 1-3.84 0c-1.907-.477-3.657-1.797-4.786-3.69h1.991a2.934 2.934 0 0 0 2.762 1.954H25a2.929 2.929 0 1 0 0-5.86h-1.953a2.932 2.932 0 0 0-2.764 1.954h-2.848zm5.529 7.618a9.875 9.875 0 0 0 3.632.082l-1.726 1.825-1.906-1.907zm.564 3.327l-3.098 3.275a37.217 37.217 0 0 1-2.186-5.07l1.163-2.326 4.12 4.12zm6.897-4.452l1.329 2.657a37.212 37.212 0 0 1-2.187 5.072l-3.315-3.315 4.173-4.414zM22.07 26.66c0-.539.438-.976.977-.976H25a.978.978 0 0 1 0 1.953h-1.953a.978.978 0 0 1-.977-.977zM4.531 48.047c.387-4.838 3.607-9.235 7.94-10.68l4.11-1.37a39.163 39.163 0 0 0 2.78 6.03l.006.01a39.16 39.16 0 0 0 2.673 4.081l1.201 1.929H4.531zM25 47.177l-1.324-2.127a1 1 0 0 0-.048-.07 37.247 37.247 0 0 1-2.2-3.287l3.482-3.683 3.67 3.67a37.206 37.206 0 0 1-2.208 3.3c-.048.064.02-.036-1.372 2.196zm1.759.87l1.201-1.929a39.153 39.153 0 0 0 2.692-4.114l.014-.026.002-.003a39.118 39.118 0 0 0 2.75-5.978l4.111 1.37c4.333 1.445 7.553 5.842 7.94 10.68h-18.71z" fill="#E8E8E8"/></svg>