<svg width="84" height="2" fill="none" xmlns="http://www.w3.org/2000/svg"><path d="M83 2a1 1 0 1 0 0-2v2zM1 0a1 1 0 0 0 0 2V0zm81.456 0a1 1 0 1 0 0 2V0zM71.794 2a1 1 0 1 0 0-2v2zm-1.051-2a1 1 0 1 0 0 2V0zM60.089 2a1 1 0 1 0 0-2v2zm-1.057-2a1 1 0 1 0 0 2V0zm-10.66 2a1 1 0 1 0 0-2v2zm-1.051-2a1 1 0 1 0 0 2V0zM36.669 2a1 1 0 1 0 0-2v2zM35.6 0a1 1 0 1 0 0 2V0zM24.958 2a1 1 0 1 0 0-2v2zm-1.065-2a1 1 0 0 0 0 2V0zM13.247 2a1 1 0 1 0 0-2v2zm-1.062-2a1 1 0 1 0 0 2V0zM1.54 2a1 1 0 1 0 0-2v2zM83 0h-.544v2H83V0zM71.794 0h-1.051v2h1.051V0zM60.089 0h-1.057v2h1.057V0zM48.373 0h-1.052v2h1.052V0zM36.669 0H35.6v2h1.07V0zM24.958 0h-1.065v2h1.065V0zM13.247 0h-1.062v2h1.063V0zM1.54 0H1v2h.54V0z" fill="#FFAF24"/></svg>