<svg width="63" height="50" fill="none" xmlns="http://www.w3.org/2000/svg"><path d="M46.66 0C37.8 0 30.646 7.171 30.646 16.053c0 2.565.59 5.065 1.772 7.368l-2.428 7.96c-.132.395 0 .856.262 1.119.197.197.525.329.788.329.13 0 .197 0 .328-.066l7.875-2.434c2.231 1.184 4.79 1.776 7.35 1.776 8.86 0 16.012-7.17 16.012-16.052C62.672 7.17 55.52 0 46.66 0zm.459 7.829a7.69 7.69 0 0 1 5.447 2.237c1.443 1.447 2.23 3.42 2.23 5.46a.87.87 0 0 1-.852.856.87.87 0 0 1-.853-.856 6.144 6.144 0 0 0-1.772-4.276 5.997 5.997 0 0 0-4.266-1.776.87.87 0 0 1-.853-.856c.066-.394.46-.79.919-.79zm0 3.224c1.181 0 2.362.46 3.215 1.315.853.856 1.313 1.974 1.313 3.224a.87.87 0 0 1-.853.855.87.87 0 0 1-.853-.855c0-.79-.263-1.447-.854-2.04a2.876 2.876 0 0 0-2.034-.855.87.87 0 0 1-.853-.855c.066-.395.46-.79.919-.79zM46.2 14.67c.525-.526 1.378-.526 1.837 0a1.3 1.3 0 0 1 .394.921 1.3 1.3 0 0 1-.393.921 1.297 1.297 0 0 1-.92.395c-.327 0-.656-.132-.918-.395a1.3 1.3 0 0 1-.394-.92 1.3 1.3 0 0 1 .394-.922zm8.531 7.566l-1.51 2.303c-.327.526-.983.855-1.64.789-.656-.066-1.51-.132-2.034-.263-2.56-.658-5.25-2.303-7.481-4.54-2.232-2.236-3.872-4.934-4.529-7.5-.13-.592-.262-1.381-.262-2.04a1.663 1.663 0 0 1 .788-1.578l2.296-1.513a1.163 1.163 0 0 1 1.707.46l1.837 3.619c.263.526.131 1.118-.328 1.513l-1.706 1.316c.656 1.25 1.312 2.236 2.493 3.486 1.116 1.119 2.1 1.777 3.413 2.5l1.313-1.71c.328-.46.984-.592 1.509-.329l3.61 1.842c.721.263.918 1.053.524 1.645zM15.75 35.633C5.891 35.633.461 40.31.461 48.8c0 .664.537 1.2 1.199 1.2h28.18c.661 0 1.197-.537 1.197-1.2 0-8.49-5.43-13.166-15.288-13.166zM2.9 47.6c.471-6.348 4.788-9.564 12.85-9.564S28.129 41.252 28.6 47.6H2.9zm12.85-30.495c-4.529 0-7.944 3.493-7.944 8.123 0 4.767 3.564 8.644 7.944 8.644s7.944-3.877 7.944-8.643c0-4.631-3.415-8.124-7.944-8.124zm0 14.367c-3.06 0-5.549-2.8-5.549-6.243 0-3.316 2.334-5.723 5.549-5.723 3.163 0 5.549 2.46 5.549 5.723 0 3.442-2.49 6.243-5.549 6.243z" fill="#FFAF24"/></svg>