<svg width="56" height="55" fill="none" xmlns="http://www.w3.org/2000/svg"><g clip-path="url(#clip0)" fill="#FFAF24"><path d="M1.4 27.488h.033c.494 0 .9-.392.916-.886C2.845 12.436 14.731 1.354 28.898 1.85a25.666 25.666 0 0 1 14.979 5.484h-4.878a.917.917 0 0 0 0 1.834h7.346a.924.924 0 0 0 .21-.042.987.987 0 0 0 .139-.03c.025-.012.045-.035.07-.048a.876.876 0 0 0 .223-.157l.01-.007a.888.888 0 0 0 .063-.1.883.883 0 0 0 .12-.191.87.87 0 0 0 .045-.226.755.755 0 0 0 .023-.116V.918a.917.917 0 0 0-1.833 0v5.31C33.67-3.397 16.35-1.677 6.725 10.068A27.493 27.493 0 0 0 .517 26.541a.917.917 0 0 0 .885.947zm7.423 17.07a.918.918 0 0 0-1.375 1.219A27.933 27.933 0 0 0 9.446 47.8a.917.917 0 0 0 1.236-1.353 25.845 25.845 0 0 1-1.859-1.89zm10.939 7.258c-.838-.283-1.66-.61-2.464-.98a.917.917 0 1 0-.767 1.665c.862.397 1.745.748 2.644 1.053a.917.917 0 0 0 .587-1.738zm-4.815-2.211v-.001c-.761-.452-1.5-.941-2.212-1.467a.917.917 0 1 0-1.09 1.473 27.817 27.817 0 0 0 2.367 1.572.917.917 0 1 0 .935-1.577zM7.163 42.49a26.003 26.003 0 0 1-1.437-2.23.918.918 0 0 0-1.59.916c.472.82.986 1.616 1.54 2.384a.917.917 0 0 0 1.487-1.07zm-2.557-4.218a.917.917 0 0 0-.078-.371l-.002-.006a25.597 25.597 0 0 1-.949-2.475.916.916 0 1 0-1.741.565c.292.903.631 1.79 1.015 2.659a.917.917 0 0 0 1.755-.372zm-2.42-4.331a.917.917 0 0 0 .707-1.086 25.98 25.98 0 0 1-.415-2.62.917.917 0 0 0-1.824.192c.1.943.25 1.88.446 2.807a.917.917 0 0 0 1.086.707zm51.848-.936a.917.917 0 0 0-1.11.67 25.96 25.96 0 0 1-.77 2.54.917.917 0 0 0 1.725.62c.322-.891.597-1.8.825-2.72a.917.917 0 0 0-.67-1.11zM24.93 52.983a25.672 25.672 0 0 1-2.614-.449.917.917 0 0 0-.404 1.789c.925.208 1.86.369 2.802.48a.917.917 0 0 0 .216-1.82zm27.414-14.749a.917.917 0 0 0-1.224.426 25.512 25.512 0 0 1-1.278 2.325.917.917 0 0 0 1.559.966 27.44 27.44 0 0 0 1.368-2.493.917.917 0 0 0-.425-1.224zm-2.708 4.767a.917.917 0 0 0-1.288.147l-.016.02v-.001a25.672 25.672 0 0 1-1.728 2.017.917.917 0 0 0 1.329 1.264 28.03 28.03 0 0 0 1.85-2.159.917.917 0 0 0-.147-1.288zm4.963-15.457a.903.903 0 0 0-.949.883 25.714 25.714 0 0 1-.23 2.644.917.917 0 0 0 1.816.252c.13-.939.213-1.884.246-2.832a.916.916 0 0 0-.883-.947zm-9.916 19.463v.003a25.98 25.98 0 0 1-2.108 1.62.919.919 0 0 0 1.045 1.512 28.09 28.09 0 0 0 2.255-1.742.917.917 0 1 0-1.192-1.393zm-9.248 5.067c-.847.255-1.706.466-2.575.633a.916.916 0 0 0 .344 1.8 27.132 27.132 0 0 0 2.761-.678.917.917 0 0 0-.53-1.755zm-5.157.993a.938.938 0 0 0-.05.004l.005.004a26.48 26.48 0 0 1-2.232.092h-.42c-.5.007-.908.4-.933.9a.917.917 0 0 0 .9.933H28c.8 0 1.604-.036 2.383-.103a.917.917 0 1 0-.106-1.83zm10.042-3.045c-.776.425-1.573.81-2.389 1.153a.917.917 0 1 0 .71 1.69c.873-.367 1.728-.78 2.559-1.236a.917.917 0 1 0-.88-1.607z"/><path d="M28 8.251c-10.63 0-19.25 8.618-19.25 19.25 0 10.63 8.62 19.25 19.25 19.25 10.632 0 19.25-8.62 19.25-19.25C47.238 16.874 38.627 8.263 28 8.25zm14.667 20.166h2.703c-.476 8.882-7.571 15.977-16.453 16.453v-2.703a.917.917 0 0 0-1.833 0v2.703c-8.882-.476-15.977-7.57-16.453-16.453h2.703a.917.917 0 0 0 0-1.833h-2.703c.476-8.882 7.57-15.977 16.453-16.453v2.703a.917.917 0 0 0 1.833 0v-2.703c8.882.476 15.977 7.571 16.453 16.453h-2.703a.917.917 0 0 0 0 1.833z"/><path d="M28.917 24.92V16.5a.917.917 0 0 0-1.833 0v8.42a2.75 2.75 0 0 0-1.665 1.664h-4.752a.917.917 0 0 0 0 1.833h4.752a2.744 2.744 0 1 0 3.498-3.498zM28 28.416a.917.917 0 1 1 0-1.833.917.917 0 0 1 0 1.833z"/></g><defs><clipPath id="clip0"><path fill="#fff" transform="translate(.5)" d="M0 0h55v55H0z"/></clipPath></defs></svg>